<svg xmlns="http://www.w3.org/2000/svg" viewBox="0 0 32 32" role="img" aria-labelledby="title">
  <title>WhatsApp</title>
  <path fill="#ffffff" d="M16.02 3.2c-7.06 0-12.8 5.64-12.8 12.58 0 2.23.6 4.4 1.74 6.31L3.2 28.8l6.9-1.77a13.05 13.05 0 0 0 5.92 1.48c7.06 0 12.8-5.64 12.8-12.59 0-6.94-5.74-12.72-12.8-12.72Zm0 22.95a10.6 10.6 0 0 1-5.4-1.5l-.39-.23-4.1 1.05 1.1-3.88-.26-.4a10.16 10.16 0 0 1-1.56-5.41c0-5.65 4.77-10.24 10.61-10.24 5.85 0 10.61 4.66 10.61 10.38 0 5.64-4.76 10.23-10.61 10.23Zm5.83-7.66c-.32-.16-1.9-.92-2.2-1.02-.29-.11-.5-.16-.71.16-.21.31-.82 1.02-1 1.23-.18.21-.37.24-.69.08-.32-.15-1.35-.49-2.57-1.56a9.54 9.54 0 0 1-1.78-2.18c-.18-.31-.02-.48.14-.64.14-.13.32-.36.48-.54.16-.19.21-.32.32-.53.1-.21.05-.4-.03-.55-.08-.15-.71-1.68-.98-2.3-.26-.6-.52-.52-.71-.53h-.61c-.21 0-.55.08-.84.4-.29.31-1.11 1.07-1.11 2.6 0 1.54 1.14 3.03 1.3 3.24.16.21 2.24 3.35 5.43 4.7.76.32 1.35.51 1.81.65.76.24 1.45.21 2 .13.61-.09 1.9-.76 2.16-1.49.27-.73.27-1.36.19-1.49-.08-.13-.29-.21-.61-.37Z"/>
</svg>
